<svg xmlns="http://www.w3.org/2000/svg" width="150" height="150" viewBox="0 0 150 150">
  <g
    fill="none"
    stroke="#1f2937"
    stroke-width="1.35"
    stroke-linecap="round"
    stroke-linejoin="round"
    opacity="0.055"
  >
    <g transform="translate(12, 14)">
      <circle cx="12" cy="7" r="3.5" />
      <path d="M5.5 21.5v-.5c0-2.5 2-4.5 4.5-4.5h4c2.5 0 4.5 2 4.5 4.5v.5" />
    </g>
    <g transform="translate(58, 12)">
      <path d="M3 22V9l7-5 7 5v13" />
      <path d="M9 22v-6h4v6" />
      <path d="M7 14h1.5M13.5 14H15" />
    </g>
    <g transform="translate(108, 16)">
      <rect x="5" y="2" width="14" height="20" rx="2.5" />
      <path d="M11 18h2" />
    </g>
    <g transform="translate(22, 78)">
      <path d="M7 3h7l4 4v15H7V3z" />
      <path d="M14 3v4h4" />
      <path d="M10 12h6M10 16h6M10 20h4" />
    </g>
    <g transform="translate(82, 76)">
      <circle cx="12" cy="12" r="3" />
      <path d="M12 1.5v2.6M12 19.9v2.6M1.5 12h2.6M19.9 12h2.6M4.6 4.6l1.8 1.8m11.2 11.2l1.8 1.8M19.4 4.6l-1.8 1.8M6.2 17.6l-1.8 1.8" />
    </g>
    <g transform="translate(118, 92) scale(0.85)">
      <circle cx="12" cy="7" r="3.5" />
      <path d="M5.5 21.5v-.5c0-2.5 2-4.5 4.5-4.5h4c2.5 0 4.5 2 4.5 4.5v.5" />
    </g>
    <g transform="translate(8, 102)">
      <path d="M5.5 4.5C4 6 3.5 8 4 9.5c1 3 4 7 7.5 10.5s7.5 6.5 10.5 7.5c1.5.5 3.5 0 5-1.5l1.5-1.5c.6-.6.6-1.5 0-2.1l-2.5-2.5c-.5-.5-1.3-.5-1.8 0l-1 1c-1.2-.8-2.8-2.2-4-3.4s-2.6-2.8-3.4-4l1-1c.5-.5.5-1.3 0-1.8L9.6 4.5c-.6-.6-1.5-.6-2.1 0L5.5 4.5z" />
    </g>
    <g transform="translate(52, 108) scale(0.75)">
      <path d="M3 22V9l7-5 7 5v13" />
      <path d="M9 22v-6h4v6" />
    </g>
  </g>
</svg>
